<svg width="73" height="64" viewBox="0 0 73 64" fill="none" xmlns="http://www.w3.org/2000/svg">
<path opacity="0.4" d="M69.0427 31.1844L55.4584 26.0937V10.8387C55.4577 9.80771 55.1423 8.80146 54.5542 7.95457C53.9662 7.10769 53.1336 6.46054 52.1678 6.09968L38.1053 0.826238C36.9591 0.391661 35.6936 0.391661 34.5474 0.826238L20.4849 6.09968C19.5191 6.46054 18.6865 7.10769 18.0985 7.95457C17.5104 8.80146 17.195 9.80771 17.1943 10.8387V26.0937L3.60994 31.1844C2.64675 31.5475 1.81715 32.1956 1.23175 33.0423C0.646345 33.889 0.332959 34.8941 0.333374 35.9234V51.4062C0.333354 52.3464 0.595145 53.268 1.08941 54.0678C1.58368 54.8676 2.2909 55.5139 3.13181 55.9344L17.1943 62.9656C17.8968 63.3186 18.6722 63.5024 19.4584 63.5024C20.2446 63.5024 21.0199 63.3186 21.7224 62.9656L36.3334 55.6531L50.9443 62.9656C51.6468 63.3186 52.4222 63.5024 53.2084 63.5024C53.9946 63.5024 54.7699 63.3186 55.4724 62.9656L69.5349 55.9344C70.3759 55.5139 71.0831 54.8676 71.5773 54.0678C72.0716 53.268 72.3334 52.3464 72.3334 51.4062V35.9234C72.3327 34.8924 72.0173 33.8861 71.4292 33.0393C70.8412 32.1924 70.0086 31.5452 69.0427 31.1844ZM33.8021 51.5722L21.849 57.5487V46.4267L33.8021 40.9705V51.5722ZM33.8021 35.8222L19.4584 41.6455L5.11462 35.825V35.7406L19.4584 30.3687L33.8021 35.7406V35.8222ZM21.9896 10.7262V10.6419L36.3334 5.26999L50.6771 10.6419V10.7262L36.3334 16.5467L21.9896 10.7262ZM38.724 21.103L50.6771 15.8998V26.2062L38.724 30.6922V21.103ZM67.5521 51.5722L55.599 57.5487V46.4267L67.5521 40.9705V51.5722ZM67.5521 35.8222L53.2084 41.6455L38.8646 35.825V35.7406L53.2084 30.3687L67.5521 35.7406V35.8222Z" fill="#93C5FD"/>
<path d="M21.849 57.5487L33.8021 51.5722V40.9705L21.849 46.4267V57.5487ZM55.599 46.4267V57.5487L67.5521 51.5722V40.9705L55.599 46.4267ZM38.724 30.6922L50.6771 26.2062V15.8998L38.724 21.103V30.6922Z" fill="#93C5FD"/>
</svg>
