<svg width="126" height="126" viewBox="0 0 126 126" fill="none" xmlns="http://www.w3.org/2000/svg">
<g clip-path="url(#clip0_4038_50955)">
<path d="M60.375 74.8125L28.875 86.625L3.9375 69.5625L32.8125 55.125V23.625L63 11.8125L91.875 23.625V55.125L123.375 69.5625L95.8125 85.3125L60.375 74.8125Z" fill="#F4F4F5"/>
<path d="M120.241 61.5721L96.4688 52.6635V25.9673C96.4676 24.163 95.9156 22.402 94.8865 20.92C93.8574 19.4379 92.4003 18.3054 90.7102 17.6739L66.1008 8.44538C64.0951 7.68487 61.8803 7.68487 59.8746 8.44538L35.2652 17.6739C33.5751 18.3054 32.118 19.4379 31.0889 20.92C30.0598 22.402 29.5078 24.163 29.5066 25.9673V52.6635L5.73399 61.5721C4.04841 62.2076 2.59661 63.3418 1.57215 64.8235C0.547698 66.3053 -0.000726943 68.0641 7.23178e-07 69.8655V96.9604C-3.47608e-05 98.6057 0.4581 100.219 1.32307 101.618C2.18804 103.018 3.42566 104.149 4.89727 104.885L29.5066 117.189C30.7361 117.807 32.0929 118.129 33.4688 118.129C34.8446 118.129 36.2014 117.807 37.4309 117.189L63 104.392L88.5691 117.189C89.7986 117.807 91.1554 118.129 92.5312 118.129C93.9071 118.129 95.2639 117.807 96.4934 117.189L121.103 104.885C122.574 104.149 123.812 103.018 124.677 101.618C125.542 100.219 126 98.6057 126 96.9604V69.8655C125.999 68.0612 125.447 66.3002 124.418 64.8182C123.389 63.3361 121.932 62.2036 120.241 61.5721V61.5721ZM58.5703 97.2508L37.6523 107.71V88.2462L58.5703 78.6978V97.2508ZM58.5703 69.6883L33.4688 79.879L8.36719 69.6932V69.5455L33.4688 60.1448L58.5703 69.5455V69.6883ZM37.8984 25.7704V25.6227L63 16.2219L88.1016 25.6227V25.7704L63 35.9562L37.8984 25.7704ZM67.1836 43.9296L88.1016 34.8242V52.8604L67.1836 60.7108V43.9296ZM117.633 97.2508L96.7148 107.71V88.2462L117.633 78.6978V97.2508ZM117.633 69.6883L92.5312 79.879L67.4297 69.6932V69.5455L92.5312 60.1448L117.633 69.5455V69.6883Z" fill="#D4D4D8"/>
<path d="M37.6523 107.71L58.5703 97.2508V78.6978L37.6523 88.2463V107.71ZM96.7148 88.2463V107.71L117.633 97.2508V78.6978L96.7148 88.2463ZM67.1836 60.7108L88.1016 52.8604V34.8242L67.1836 43.9297V60.7108Z" fill="#A1A1AA"/>
<path d="M14 15L120.5 121.5" stroke="#E4E4E7" stroke-width="15"/>
<path d="M14 15L120.5 121.5" stroke="#A1A1AA" stroke-width="4"/>
</g>
<defs>
<clipPath id="clip0_4038_50955">
<rect width="126" height="126" fill="white"/>
</clipPath>
</defs>
</svg>
