<svg width="20" height="20" viewBox="0 0 14 18" fill="none" xmlns="http://www.w3.org/2000/svg">
<g clip-path="url(#clip0_3422:34068)">
<path d="M13.5043 3.44177L10.5547 0.492163C10.2383 0.175757 9.80938 -0.00354004 9.36289 -0.00354004H2.1875C1.25586 -2.4414e-05 0.5 0.755835 0.5 1.68748V16.3125C0.5 17.2441 1.25586 18 2.1875 18H12.3125C13.2441 18 14 17.2441 14 16.3125V4.63708C14 4.1906 13.8207 3.75818 13.5043 3.44177ZM12.1754 4.49998H9.5V1.82458L12.1754 4.49998ZM2.1875 16.3125V1.68748H7.8125V5.34373C7.8125 5.8113 8.18867 6.18748 8.65625 6.18748H12.3125V16.3125H2.1875Z" fill="#52525B"/>
</g>
<defs>
<clipPath id="clip0_3422:34068">
<rect width="13.5" height="18" fill="white" transform="translate(0.5)"/>
</clipPath>
</defs>
</svg>
