<svg width="26" height="18" viewBox="0 0 26 18" fill="none" xmlns="http://www.w3.org/2000/svg">
<path d="M10.4648 11.4023V15.4883L7.9648 13.309V11.4023L2.48199 4.625H7.95464L7.44527 3.92578C7.14839 3.60156 6.96871 3.18359 6.85933 2.75H2.32261C1.60113 2.75 0.967532 3.14844 0.667884 3.79297C0.374915 4.41797 0.47015 5.13828 0.916283 5.67031L6.12496 12.0703V13.7508C6.12496 14.241 6.36597 14.7 6.76988 14.9801L9.98472 17.4625C10.2304 17.6562 10.5625 17.75 10.8671 17.75C11.6984 17.75 12.3746 17.0785 12.3746 16.2523L12.375 9.98047L12.0039 9.55859L10.4648 11.4023ZM25.332 1.29375C25.0312 0.649609 24.3984 0.25 23.6757 0.25H9.82418C9.10152 0.25 8.43355 0.649609 8.16793 1.29375C7.87496 1.91875 7.97019 2.63906 8.41632 3.17109L13.625 9.57031V12.5008C13.625 12.991 13.866 13.45 14.2699 13.7301L17.4847 16.2125C17.7304 16.4062 18.0625 16.5 18.3671 16.5C19.1984 16.5 19.8746 15.8285 19.8746 15.0023V9.57031L25.0894 3.19922C25.5273 2.63906 25.625 1.91875 25.332 1.29375ZM17.9648 8.90234V14.2383L15.4648 12.3078V8.90234L9.98043 2.125H23.5195L17.9648 8.90234Z" fill="#6366F1"/>
</svg>
