<svg width="21" height="18" viewBox="0 0 21 18" fill="none" xmlns="http://www.w3.org/2000/svg">
<g clip-path="url(#clip0_3422:34078)">
<path d="M18.559 7.875H16.875V6.1875C16.875 5.25586 16.1191 4.5 15.1875 4.5H9.5625L7.3125 2.25H1.6875C0.755859 2.25 0 3.00586 0 3.9375V14.0625C0 14.9941 0.755859 15.75 1.6875 15.75H15.75C16.3301 15.75 16.8715 15.4512 17.1809 14.9555L19.9898 10.4555C20.693 9.33398 19.8844 7.875 18.559 7.875V7.875ZM1.6875 4.14844C1.6875 4.03242 1.78242 3.9375 1.89844 3.9375H6.61289L8.86289 6.1875H14.9766C15.0926 6.1875 15.1875 6.28242 15.1875 6.39844V7.875H5.34375C4.75313 7.875 4.20469 8.18437 3.89883 8.69062L1.6875 12.3539V4.14844ZM15.75 14.0625H2.53125L5.24531 9.5625H18.5625L15.75 14.0625Z" fill="#52525B"/>
</g>
<defs>
<clipPath id="clip0_3422:34078">
<rect width="20.25" height="18" fill="white"/>
</clipPath>
</defs>
</svg>
