<svg width="64" height="64" viewBox="0 0 64 64" fill="none" xmlns="http://www.w3.org/2000/svg">
<circle cx="31.9999" cy="31.9999" r="30.08" fill="white"/>
<path d="M14.72 27.8929H23.0606C23.9688 25.9018 25.5268 24.2824 27.4763 23.3042C29.4262 22.3256 31.6501 22.0466 33.779 22.5138C35.9081 22.9809 37.814 24.1659 39.1809 25.8717C40.5478 27.5778 41.2931 29.7024 41.2931 31.8931C41.2931 34.0834 40.5478 36.208 39.1809 37.9141C37.814 39.6202 35.9081 40.8052 33.779 41.2721C31.6501 41.7392 29.4262 41.4605 27.4763 40.482C25.5268 39.5034 23.9688 37.8843 23.0606 35.8929H14.72C15.6966 40.0992 18.1776 43.7974 21.6911 46.2841C25.2045 48.7705 29.5048 49.8714 33.7737 49.3774C38.0422 48.8834 41.9813 46.8288 44.8406 43.6047C47.7 40.3805 49.28 36.2122 49.28 31.8931C49.28 27.5739 47.7 23.4053 44.8406 20.1815C41.9813 16.9573 38.0422 14.9026 33.7737 14.4085C29.5048 13.9145 25.2045 15.0155 21.6911 17.502C18.1776 19.9884 15.6966 23.687 14.72 27.8929Z" fill="#1E293B"/>
<path fill-rule="evenodd" clip-rule="evenodd" d="M32 7.52766C18.5884 7.52766 7.71587 18.4366 7.71587 31.8934C7.71587 45.3503 18.5884 56.259 32 56.259C45.4117 56.259 56.2844 45.3503 56.2844 31.8934C56.2844 18.4366 45.4117 7.52766 32 7.52766ZM0.213379 31.8934C0.213379 14.2792 14.4447 0 32 0C49.5554 0 63.7867 14.2792 63.7867 31.8934C63.7867 49.5076 49.5554 63.7867 32 63.7867C14.4447 63.7867 0.213379 49.5076 0.213379 31.8934Z" fill="#1E293B"/>
<path d="M31.7866 35.8397C33.9076 35.8397 35.6268 34.1682 35.6268 32.1064C35.6268 30.0445 33.9076 28.373 31.7866 28.373C29.666 28.373 27.9468 30.0445 27.9468 32.1064C27.9468 34.1682 29.666 35.8397 31.7866 35.8397Z" fill="#6366F1"/>
</svg>
