<svg width="302" height="305" viewBox="0 0 302 305" fill="none" xmlns="http://www.w3.org/2000/svg">
<path d="M68.9732 133.656H108.625C112.941 124.199 120.348 116.509 129.617 111.862C138.886 107.215 149.458 105.891 159.579 108.109C169.701 110.327 178.762 115.955 185.26 124.057C191.757 132.159 195.3 142.249 195.3 152.652C195.3 163.055 191.757 173.145 185.26 181.247C178.762 189.349 169.701 194.977 159.579 197.195C149.458 199.413 138.886 198.089 129.617 193.442C120.348 188.795 112.941 181.105 108.625 171.649H68.9732C73.6157 191.624 85.4112 209.188 102.114 220.997C118.817 232.805 139.261 238.034 159.554 235.688C179.847 233.341 198.572 223.584 212.166 208.272C225.759 192.961 233.27 173.164 233.27 152.652C233.27 132.14 225.759 112.343 212.166 97.0318C198.572 81.7203 179.847 71.9627 159.554 69.6163C139.261 67.2699 118.817 72.4987 102.114 84.3074C85.4112 96.116 73.6157 113.68 68.9732 133.656Z" fill="#1E293B"/>
<path fill-rule="evenodd" clip-rule="evenodd" d="M151 36.6592C87.2882 36.6592 35.6399 88.5229 35.6399 152.5C35.6399 216.477 87.2882 268.341 151 268.341C214.712 268.341 266.36 216.477 266.36 152.5C266.36 88.5229 214.712 36.6592 151 36.6592ZM0 152.5C0 68.7576 67.6049 0.87085 151 0.87085C234.395 0.87085 302 68.7576 302 152.5C302 236.243 234.395 304.129 151 304.129C67.6049 304.129 0 236.243 0 152.5Z" fill="#1E293B"/>
<path d="M150.247 167.417C157.971 167.417 164.232 161.221 164.232 153.578C164.232 145.934 157.971 139.738 150.247 139.738C142.523 139.738 136.261 145.934 136.261 153.578C136.261 161.221 142.523 167.417 150.247 167.417Z" fill="#6366F1"/>
</svg>
